<?xml version="1.0" encoding="UTF-8" standalone="no"?>
<!-- Created with Inkscape (http://www.inkscape.org/) -->

<svg
   width="86.090584mm"
   height="24.02957mm"
   viewBox="0 0 86.090584 24.02957"
   version="1.1"
   id="svg5"
   inkscape:version="1.1 (c68e22c387, 2021-05-23)"
   sodipodi:docname="HeirBnB_Logo.svg"
   xmlns:inkscape="http://www.inkscape.org/namespaces/inkscape"
   xmlns:sodipodi="http://sodipodi.sourceforge.net/DTD/sodipodi-0.dtd"
   xmlns="http://www.w3.org/2000/svg"
   xmlns:svg="http://www.w3.org/2000/svg">
  <sodipodi:namedview
     id="namedview7"
     pagecolor="#505050"
     bordercolor="#eeeeee"
     borderopacity="1"
     inkscape:pageshadow="0"
     inkscape:pageopacity="0"
     inkscape:pagecheckerboard="0"
     inkscape:document-units="mm"
     showgrid="false"
     inkscape:snap-global="false"
     inkscape:zoom="2.6832492"
     inkscape:cx="160.8125"
     inkscape:cy="87.021362"
     inkscape:current-layer="layer1"
     fit-margin-top="0"
     fit-margin-left="0"
     fit-margin-right="0"
     fit-margin-bottom="0" />
  <defs
     id="defs2" />
  <g
     inkscape:label="Layer 1"
     inkscape:groupmode="layer"
     id="layer1"
     transform="translate(-22.605113,-146.43208)">
    <path
       style="fill:#ffffff;fill-opacity:1;stroke-width:1"
       d="m 23.23968,170.03208 c -1.182378,-1.30651 -0.658909,-4.20573 1.125358,-6.23276 0.985949,-1.1201 3.805498,-2.83802 4.65792,-2.83802 0.552859,0 0.702417,-1.60179 0.562965,-6.02943 -0.09004,-2.85889 -0.27133,-4.60107 -0.580539,-5.57898 -0.278289,-0.88014 -0.355526,-1.51605 -0.202697,-1.66888 0.135802,-0.1358 0.917869,-0.31616 1.737927,-0.4008 l 1.491013,-0.15388 0.39876,0.95436 c 0.219317,0.5249 0.356797,1.21189 0.398759,1.52034 0.03698,0.27181 0.0063,0.47167 0.418514,0.40537 0.243411,-0.0392 0.468309,-0.1606 0.529167,-0.1606 0.06086,0 0.110652,-0.6421 0.110652,-1.4269 0,-1.62811 0.143139,-1.7481 2.08539,-1.7481 1.542236,0 1.88336,0.32109 1.88336,1.77271 0,0.95253 0.08418,1.13771 0.517178,1.13771 0.510848,0 0.651474,-0.38638 0.866674,-2.38125 0.06714,-0.62233 0.174452,-0.66603 1.814265,-0.73871 1.366239,-0.0606 1.870236,0.0259 2.332074,0.39982 l 0.589167,0.47708 -0.90665,1.98143 c -0.498658,1.08978 -1.044374,2.27908 -1.212703,2.64288 -0.260514,0.56304 -0.283525,0.44929 -0.154651,-0.76447 0.08327,-0.78426 0.318422,-1.9107 0.522557,-2.50321 0.204135,-0.59251 0.342192,-1.10625 0.306793,-1.14164 -0.0354,-0.0354 -0.557898,-0.14329 -1.161109,-0.23974 l -1.096747,-0.17538 -0.166935,1.02316 c -0.321275,1.96912 -0.525439,2.21378 -1.847365,2.21378 h -1.196298 v -1.45521 -1.45521 h -1.190625 -1.190625 v 1.27 c 0,1.49036 -0.176013,1.86679 -1.486861,1.905 -1.10753,0.0323 -0.885185,-0.10032 -1.291264,-1.32291 -0.425739,-1.28178 -0.47102,-1.32292 -1.456193,-1.32292 l -0.755323,0.1656 0.146083,0.65135 c 0.30107,1.34241 1.183764,5.29608 1.214123,8.66432 l 0.02703,2.99897 1.173571,-0.17599 c 1.673003,-0.25088 1.899667,-0.37861 1.899667,-1.07054 0,-1.06519 0.478126,-1.93331 1.29841,-2.3575 1.535759,-0.79417 2.405756,-0.3144 2.405756,1.32667 0,0.68149 0.04562,0.70537 1.0428,0.54592 1.518516,-0.24282 2.396784,-0.62936 2.396784,-1.05486 0,-0.77206 1.421182,-4.60979 2.433942,-6.57256 2.078484,-4.02819 5.314973,-5.75753 6.30448,-3.36864 0.433793,1.04726 0.05212,2.83174 -1.111013,5.19439 -0.943423,1.91636 -3.425404,4.42125 -5.149253,5.19677 l -1.08165,0.48662 -0.301716,2.15922 c -0.457275,3.27247 -0.39587,7.06546 0.126454,7.81119 0.51311,0.73256 0.166825,1.23522 -0.668346,0.97014 -1.048193,-0.33268 -1.469369,-1.61974 -1.474362,-4.50544 -0.0025,-1.45521 0.09102,-3.31231 0.207862,-4.12689 l 0.212441,-1.48105 -4.931992,1.12942 c -2.712595,0.62118 -4.995907,1.19334 -5.074026,1.27146 -0.07812,0.0781 -0.396468,0.89808 -0.70744,1.82213 -0.696507,2.06967 -2.077931,4.38836 -3.360833,5.64108 -1.205818,1.17745 -2.770574,1.49824 -3.48068,0.71358 z m 2.948869,-1.92566 c 1.035203,-1.30963 2.28154,-3.66753 2.688349,-5.08599 0.246998,-0.86123 0.22109,-0.87015 -0.889537,-0.30639 -2.433143,1.23509 -4.154048,3.48478 -4.154048,5.43045 0,1.77039 0.937712,1.75523 2.355236,-0.0381 z m 8.676034,-9.45518 c -0.06708,-0.25744 -0.126382,-0.11087 -0.131774,0.32569 -0.0054,0.43656 0.0495,0.64719 0.12197,0.46806 0.07248,-0.17914 0.07689,-0.53632 0.0098,-0.79375 z m 1.404146,-0.48806 c 0,-0.91709 -0.08148,-1.12275 -0.396875,-1.00172 -0.268838,0.10316 -0.396875,0.52459 -0.396875,1.30631 0,0.91708 0.08148,1.12274 0.396875,1.00171 0.268838,-0.10316 0.396875,-0.52459 0.396875,-1.3063 z m 1.058334,0.0356 c 0,-0.50073 -0.119063,-0.98401 -0.264584,-1.07394 -0.15979,-0.0988 -0.264583,0.26183 -0.264583,0.91042 0,0.59067 0.119062,1.07395 0.264583,1.07395 0.145521,0 0.264584,-0.40969 0.264584,-0.91043 z m 8.708452,-3.48714 c 1.413216,-1.53888 3.197797,-4.74206 3.197797,-5.73979 0,-1.05815 -0.274747,-1.50431 -0.926368,-1.50431 -1.405302,0 -3.159346,2.68091 -4.466503,6.82668 -0.3809,1.20806 -0.692545,2.31612 -0.692545,2.46236 0,0.4821 1.621411,-0.66614 2.887619,-2.04494 z m 20.51706,14.74816 c -1.105302,-0.50207 -2.342288,-1.75577 -2.63153,-2.66709 -0.157133,-0.49509 -0.220252,-0.48178 -1.248606,0.26315 -1.253106,0.90775 -2.552237,1.0294 -3.211661,0.30075 -0.59886,-0.66174 -0.55292,-2.36693 0.09227,-3.42515 0.652285,-1.06984 0.652251,-1.10099 -0.0011,-0.93016 -0.291042,0.0761 -0.529167,0.24865 -0.529167,0.38344 0,0.13478 -0.565547,0.85233 -1.256771,1.59454 -1.333632,1.4321 -2.477061,2.06743 -3.720737,2.06743 -0.757381,0 -1.637007,-0.68651 -1.637007,-1.2776 0,-0.4306 -0.10922,-0.39938 -1.205486,0.34456 -2.582425,1.75248 -5.409097,0.81631 -5.409097,-1.79144 0,-2.96116 3.296899,-5.84707 4.875893,-4.26808 1.183629,1.18363 -0.06345,3.16575 -2.560789,4.07014 -0.827053,0.2995 -0.908086,0.69492 -0.315726,1.54063 1.115224,1.59221 4.215372,-0.36754 5.138715,-3.24842 0.186561,-0.58208 0.457327,-1.20716 0.601702,-1.38906 0.25852,-0.32572 1.785205,-0.47678 1.785205,-0.17664 0,0.0847 -0.357187,0.96791 -0.79375,1.96258 -0.820827,1.87018 -0.998627,3.01715 -0.514128,3.31658 0.573691,0.35456 1.669722,-0.20616 2.927935,-1.49792 l 1.297003,-1.33159 -0.5769,-0.46714 c -0.836938,-0.67771 -0.742294,-2.32753 0.179486,-3.12879 0.80777,-0.70215 1.260028,-0.74659 1.82708,-0.17954 0.479798,0.4798 0.534815,1.24867 0.141883,1.98287 -0.329491,0.61566 -0.201107,0.63418 0.80169,0.11561 0.716179,-0.37035 0.791795,-0.35949 1.160338,0.16668 0.361148,0.51561 0.327491,0.68112 -0.401063,1.97204 -0.921933,1.63358 -0.951289,2.84113 -0.07212,2.96672 0.940589,0.13437 2.114862,-1.22692 2.464435,-2.85691 0.541576,-2.52529 2.347743,-4.74185 4.646589,-5.70237 1.191463,-0.49782 2.436476,-0.48905 2.72089,0.0192 0.157049,0.28063 0.576646,-0.72892 1.38579,-3.33421 0.90452,-2.91238 1.280898,-3.78229 1.706126,-3.94331 0.727546,-0.2755 0.920758,-0.12406 0.754597,0.59143 -0.374275,1.61166 -2.074395,7.5839 -3.012014,10.5807 -0.931665,2.97777 -1.132084,3.39048 -1.717863,3.53751 -0.364734,0.0915 -0.730364,0.0992 -0.812517,0.0171 -0.122124,-0.12213 0.366898,-1.99056 1.647862,-6.29608 0.108884,-0.36598 -0.02685,-0.40053 -0.926936,-0.23593 -2.588302,0.4733 -4.780248,3.24753 -4.780248,6.05009 0,4.72326 7.688069,4.85154 11.506223,0.19198 1.161614,-1.41759 2.246226,-3.75334 2.249525,-4.84441 0.0022,-0.72076 -0.695349,-2.98192 -0.919874,-2.98192 -0.03919,0 -0.498684,0.17859 -1.021107,0.39688 -1.144632,0.47825 -2.333032,0.51236 -2.766017,0.0794 -0.998652,-0.99865 0.617198,-2.43708 2.520497,-2.24375 1.088361,0.11055 1.140005,0.0796 1.934835,-1.15902 1.592064,-2.48101 1.579554,-4.55862 -0.03563,-5.91771 -1.437365,-1.20946 -4.626108,-0.72214 -6.835823,1.0447 -1.048676,0.83849 -1.215035,0.8951 -1.574376,0.53576 -0.359342,-0.35934 -0.319577,-0.48762 0.376308,-1.21397 1.676004,-1.74937 5.333519,-2.95681 7.643763,-2.52341 2.065932,0.38758 3.856942,3.01524 3.468063,5.08814 -0.216321,1.1531 -1.167665,3.07371 -2.061385,4.16161 l -0.626105,0.76214 0.545031,1.08994 c 1.198346,2.39644 0.410787,6.10856 -1.819804,8.57756 -2.823125,3.12486 -8.272478,4.6825 -11.404446,3.25985 z m -17.563494,-6.89065 c 0.823468,-0.82347 1.06598,-2.13702 0.394539,-2.13702 -0.423423,0 -1.320836,1.15224 -1.724669,2.2144 -0.371311,0.97662 0.316119,0.93663 1.33013,-0.0774 z m 9.608632,-0.96804 c 0.08833,-0.23018 0.160599,-0.66148 0.160599,-0.95844 0,-0.44993 -0.06615,-0.48502 -0.396875,-0.21054 -0.42654,0.35399 -0.551328,1.5875 -0.160599,1.5875 0.129953,0 0.308546,-0.18833 0.396875,-0.41852 z m 17.953828,-4.44771 c 0.612148,-0.46469 0.584867,-0.69002 -0.08354,-0.69002 -0.673523,0 -1.570106,0.45857 -1.570106,0.80306 0,0.37249 1.114382,0.29632 1.653646,-0.11304 z m 16.72395,12.3064 c -1.003257,-0.45572 -2.313765,-1.7143 -2.562727,-2.4612 -0.07341,-0.22022 -0.459084,-0.0451 -1.143926,0.5194 -1.218695,1.00455 -2.582117,1.15798 -3.019968,0.33985 -0.15064,-0.28147 -0.273891,-1.28647 -0.273891,-2.23334 0,-0.96649 -0.127633,-1.80045 -0.290997,-1.90142 -0.507285,-0.31352 -1.654958,0.79125 -2.85701,2.7502 -0.767377,1.25057 -1.330497,1.89634 -1.653646,1.89634 -0.615778,0 -0.619033,0.0638 0.166402,-3.26032 0.902343,-3.81887 1.07461,-4.14802 2.170975,-4.14802 0.884652,0 0.887989,0.005 0.520215,0.72761 -0.203583,0.40018 -0.461316,1.02236 -0.57274,1.38261 -0.194416,0.6286 -0.162701,0.61999 0.786315,-0.21325 0.745297,-0.65438 1.190008,-0.84832 1.805276,-0.78731 1.01428,0.1006 1.322953,0.99251 1.087437,3.14214 -0.389273,3.55307 2.372016,2.60461 3.015993,-1.03594 0.482185,-2.72589 2.24635,-4.99197 4.676926,-6.00753 1.191464,-0.49782 2.436477,-0.48905 2.720891,0.0192 0.157048,0.28063 0.576646,-0.72892 1.385789,-3.33421 0.904525,-2.91238 1.280895,-3.78229 1.706125,-3.94331 0.72755,-0.2755 0.92076,-0.12406 0.7546,0.59143 -0.37427,1.61166 -2.074396,7.5839 -3.012016,10.5807 -0.931664,2.97777 -1.132083,3.39048 -1.717863,3.53751 -0.364733,0.0915 -0.730364,0.0992 -0.812517,0.0171 -0.122123,-0.12213 0.366898,-1.99056 1.647862,-6.29608 0.108884,-0.36598 -0.02685,-0.40053 -0.926936,-0.23593 -3.279236,0.97808 -4.18345,2.26145 -4.685809,4.20184 -0.100151,0.67557 -0.09444,1.23441 -0.09444,1.91001 0,4.66381 7.719698,4.75118 11.506229,0.13022 1.16161,-1.41759 2.24622,-3.75334 2.24952,-4.84441 0.002,-0.72076 -0.69535,-2.98192 -0.91987,-2.98192 -0.0392,0 -0.49868,0.17859 -1.02111,0.39688 -1.14463,0.47825 -2.33303,0.51236 -2.76601,0.0794 -0.99866,-0.99865 0.61719,-2.43708 2.52049,-2.24375 1.08836,0.11055 1.14001,0.0796 1.93484,-1.15902 1.59206,-2.48101 1.57955,-4.55862 -0.0356,-5.91771 -1.43737,-1.20946 -4.62611,-0.72214 -6.835828,1.0447 -1.048676,0.83849 -1.215036,0.8951 -1.574377,0.53576 -0.359341,-0.35934 -0.319577,-0.48762 0.376309,-1.21397 1.676003,-1.74937 5.333526,-2.95681 7.643766,-2.52341 2.06593,0.38758 3.85694,3.01524 3.46806,5.08814 -0.21632,1.1531 -1.16766,3.07371 -2.06138,4.16161 l -0.62611,0.76214 0.54503,1.08994 c 1.19835,2.39644 0.41079,6.10856 -1.8198,8.57756 -2.82312,3.12486 -8.272482,4.6825 -11.40445,3.25985 z m 9.998969,-12.3064 c 0.61215,-0.46469 0.58487,-0.69002 -0.0835,-0.69002 -0.67352,0 -1.5701,0.45857 -1.5701,0.80306 0,0.37249 1.11438,0.29632 1.65364,-0.11304 z m -48.889022,2.21238 c -0.61658,-0.68131 -0.315032,-1.68236 0.744387,-2.47113 0.92525,-0.68888 1.606931,-0.35419 1.726694,0.84777 0.06023,0.6045 -0.09763,1.00902 -0.583287,1.49467 -0.806291,0.80629 -1.247362,0.83636 -1.887794,0.12869 z m 1.45284,-0.90644 c 0.506997,-0.61089 0.04859,-1.05491 -0.539578,-0.52263 -0.273161,0.24721 -0.432908,0.55262 -0.354991,0.67869 0.208169,0.33683 0.53246,0.28025 0.894569,-0.15606 z m -23.113116,-4.00198 c -0.08833,-0.23018 -0.160599,-0.71516 -0.160599,-1.07773 0,-0.48487 0.122461,-0.63601 0.46302,-0.57147 0.606858,0.115 0.836075,2.06772 0.242717,2.06772 -0.211497,0 -0.456809,-0.18833 -0.545138,-0.41852 z m 3.118658,0.044 c -0.220131,-0.57365 -0.0088,-1.82156 0.327188,-1.9317 0.370806,-0.12156 0.705283,1.11324 0.487455,1.79956 -0.189081,0.59574 -0.610511,0.6641 -0.814643,0.13214 z m 3.239938,0.19094 c -0.252748,-0.25274 -0.196541,-1.48013 0.08842,-1.93087 0.411621,-0.65107 0.885125,0.0695 0.674834,1.02694 -0.187091,0.85182 -0.474723,1.19247 -0.763256,0.90393 z"
       id="path836"
       sodipodi:nodetypes="ssssssscssssssssscccsssssscsscccccsssscsscsssssssssscssssscssssscsssccssssssssssscssssssssscsssssscssssssssssssscsssssssssssssssccssssssscssssssssscssccsssssssssssssscssssssssscsssssssssssccsccsscsssssssssssscsscccssccsssssssssssssssssssssss"
       inkscape:export-filename="D:\Users\K25fF\Desktop\Logo.png"
       inkscape:export-xdpi="179.89"
       inkscape:export-ydpi="179.89" />
  </g>
</svg>
