<?xml version="1.0" encoding="UTF-8" standalone="no"?>
<!-- Created with Inkscape (http://www.inkscape.org/) -->

<svg
   width="80mm"
   height="80mm"
   viewBox="0 0 80 80"
   version="1.1"
   id="svg5"
   inkscape:version="1.1 (c68e22c387, 2021-05-23)"
   sodipodi:docname="avatar_guest.svg"
   xmlns:inkscape="http://www.inkscape.org/namespaces/inkscape"
   xmlns:sodipodi="http://sodipodi.sourceforge.net/DTD/sodipodi-0.dtd"
   xmlns="http://www.w3.org/2000/svg"
   xmlns:svg="http://www.w3.org/2000/svg">
  <sodipodi:namedview
     id="namedview7"
     pagecolor="#505050"
     bordercolor="#eeeeee"
     borderopacity="1"
     inkscape:pageshadow="0"
     inkscape:pageopacity="0"
     inkscape:pagecheckerboard="0"
     inkscape:document-units="mm"
     showgrid="false"
     inkscape:snap-global="true"
     inkscape:snap-bbox="true"
     inkscape:bbox-paths="true"
     fit-margin-top="0"
     fit-margin-left="0"
     fit-margin-right="0"
     fit-margin-bottom="0"
     inkscape:zoom="1.3416246"
     inkscape:cx="121.86718"
     inkscape:cy="133.79302"
     inkscape:current-layer="layer2" />
  <defs
     id="defs2" />
  <g
     inkscape:groupmode="layer"
     id="layer2"
     inkscape:label="Layer 2"
     style="display:inline"
     transform="translate(-51.106193,-126.82275)">
    <circle
       style="fill:#83daba;fill-opacity:0.299539;stroke:none;stroke-width:13.2283;stroke-linecap:round;stroke-miterlimit:4;stroke-dasharray:none;stroke-opacity:1"
       id="path8445"
       cx="91.106194"
       cy="166.82275"
       r="34.906376" />
  </g>
  <g
     inkscape:label="Layer 1"
     inkscape:groupmode="layer"
     id="layer1"
     style="display:inline"
     transform="translate(-51.106193,-126.82275)">
    <path
       id="path5422"
       style="fill:#83daba;fill-opacity:1;stroke:none;stroke-width:3.49999;stroke-linecap:round;stroke-miterlimit:4;stroke-dasharray:none;stroke-opacity:1"
       d="m 108.10993,172.69734 c -3.85759,4.26028 -9.336093,6.69178 -15.083343,6.69416 -5.228013,-0.004 -10.254054,-2.01941 -14.036868,-5.62808 -6.095235,4.72434 -9.664562,12.00074 -9.669695,19.71249 0.01822,0.36796 0.04458,0.73547 0.07906,1.10226 h 0.330214 a 35.5,36.728529 0 0 0 49.104002,0 h 0.33073 c 0.0345,-0.36679 0.0609,-0.7343 0.0791,-1.10226 -8.3e-4,-8.35265 -4.17938,-16.15133 -11.13317,-20.77857 z" />
    <circle
       style="fill:#83daba;fill-opacity:1;stroke:none;stroke-width:3.49999;stroke-linecap:round;stroke-miterlimit:4;stroke-dasharray:none;stroke-opacity:1"
       id="path1572"
       cx="93.723602"
       cy="158.6134"
       r="12.968789" />
    <circle
       style="fill:none;fill-opacity:1;stroke:#03160e;stroke-width:3.49999;stroke-linecap:round;stroke-miterlimit:4;stroke-dasharray:none;stroke-opacity:1"
       id="circle1676"
       cx="90.548599"
       cy="155.43845"
       r="12.968789" />
    <path
       id="path920"
       style="fill:none;fill-opacity:1;stroke:#03160e;stroke-width:3.49999;stroke-linecap:round;stroke-miterlimit:4;stroke-dasharray:none;stroke-opacity:1"
       d="m 66.224088,191.40315 c -0.03449,-0.36679 -0.06085,-0.7343 -0.07907,-1.10226 0.0051,-7.71176 3.57446,-14.98816 9.669696,-19.71249 3.782814,3.60866 8.808854,5.62385 14.036868,5.62808 5.74725,-0.002 11.225748,-2.43389 15.083318,-6.69417 6.95381,4.62725 11.13235,12.42592 11.13317,20.77858 -0.0182,0.36796 -0.0446,0.73547 -0.0791,1.10226"
       sodipodi:nodetypes="ccccccc" />
    <path
       style="display:inline;fill:none;fill-opacity:1;stroke:#03160e;stroke-width:3.5;stroke-linecap:round;stroke-miterlimit:4;stroke-dasharray:none;stroke-opacity:1"
       id="circle1670"
       sodipodi:type="arc"
       sodipodi:cx="91.1064"
       sodipodi:cy="166.11644"
       sodipodi:rx="35.5"
       sodipodi:ry="35.5"
       sodipodi:start="5.6113014"
       sodipodi:end="2.0966025"
       sodipodi:open="true"
       sodipodi:arc-type="arc"
       d="m 118.89049,144.01906 a 35.5,35.5 0 0 1 -0.91691,45.30093 35.5,35.5 0 0 1 -44.685001,7.5011" />
    <path
       style="display:inline;fill:none;fill-opacity:1;stroke:#03160e;stroke-width:3.5;stroke-linecap:round;stroke-miterlimit:4;stroke-dasharray:none;stroke-opacity:1"
       id="path3899"
       sodipodi:type="arc"
       sodipodi:cx="91.1064"
       sodipodi:cy="166.11644"
       sodipodi:rx="35.5"
       sodipodi:ry="35.5"
       sodipodi:start="2.3541113"
       sodipodi:end="5.1487046"
       sodipodi:arc-type="arc"
       sodipodi:open="true"
       d="M 66.056456,191.27097 A 35.5,35.5 0 0 1 62.005139,145.78502 35.5,35.5 0 0 1 106.10881,133.94226" />
  </g>
</svg>
